<mxfile host="app.diagrams.net" agent="Mozilla/5.0 (Windows NT 10.0; Win64; x64) AppleWebKit/537.36 (KHTML, like Gecko) Chrome/134.0.0.0 Safari/537.36" version="26.2.4">
  <diagram name="Page-1" id="RUYI1EMX9xIlgT_2Qkhy">
    <mxGraphModel grid="1" page="1" gridSize="10" guides="1" tooltips="1" connect="1" arrows="1" fold="1" pageScale="1" pageWidth="850" pageHeight="1100" math="0" shadow="0">
      <root>
        <mxCell id="0" />
        <mxCell id="1" parent="0" />
        <mxCell id="wbaNhf7xzRuQKyWg5way-1" value="Flow-chart" style="text;html=1;align=center;verticalAlign=middle;whiteSpace=wrap;rounded=0;fontFamily=Times New Roman;fontSize=24;fontStyle=1" vertex="1" parent="1">
          <mxGeometry x="120" y="50" width="160" height="30" as="geometry" />
        </mxCell>
        <mxCell id="wbaNhf7xzRuQKyWg5way-2" value="Pseudo-code" style="text;html=1;align=center;verticalAlign=middle;whiteSpace=wrap;rounded=0;fontFamily=Times New Roman;fontSize=24;fontStyle=1" vertex="1" parent="1">
          <mxGeometry x="550" y="50" width="160" height="30" as="geometry" />
        </mxCell>
        <mxCell id="wbaNhf7xzRuQKyWg5way-3" value="&lt;div&gt;BEGIN&lt;/div&gt;&lt;div&gt;&amp;nbsp; &amp;nbsp; N = Số ngẫu nhiên từ 0 đén 9&lt;/div&gt;&lt;div&gt;&amp;nbsp; &amp;nbsp; INPUT M&lt;/div&gt;&lt;div&gt;&amp;nbsp; &amp;nbsp; IF N == M THEN DISPLAY &quot;Dự đoán đúng&quot;&lt;/div&gt;&lt;div&gt;&amp;nbsp; &amp;nbsp; ELSE DISPLAY &quot;DỰ ĐOÁN SAI&quot; END IF&lt;/div&gt;&lt;div&gt;END&lt;/div&gt;" style="text;html=1;align=left;verticalAlign=middle;whiteSpace=wrap;rounded=0;fontFamily=Times New Roman;fontSize=18;" vertex="1" parent="1">
          <mxGeometry x="480" y="110" width="370" height="140" as="geometry" />
        </mxCell>
        <mxCell id="wbaNhf7xzRuQKyWg5way-11" style="edgeStyle=orthogonalEdgeStyle;rounded=0;orthogonalLoop=1;jettySize=auto;html=1;exitX=0.5;exitY=1;exitDx=0;exitDy=0;entryX=0.5;entryY=0;entryDx=0;entryDy=0;" edge="1" parent="1" source="wbaNhf7xzRuQKyWg5way-4" target="wbaNhf7xzRuQKyWg5way-6">
          <mxGeometry relative="1" as="geometry" />
        </mxCell>
        <mxCell id="wbaNhf7xzRuQKyWg5way-4" value="Begin" style="ellipse;whiteSpace=wrap;html=1;" vertex="1" parent="1">
          <mxGeometry x="200" y="120" width="120" height="50" as="geometry" />
        </mxCell>
        <mxCell id="wbaNhf7xzRuQKyWg5way-5" value="End" style="ellipse;whiteSpace=wrap;html=1;" vertex="1" parent="1">
          <mxGeometry x="195" y="640" width="120" height="50" as="geometry" />
        </mxCell>
        <mxCell id="wbaNhf7xzRuQKyWg5way-12" style="edgeStyle=orthogonalEdgeStyle;rounded=0;orthogonalLoop=1;jettySize=auto;html=1;exitX=0.5;exitY=1;exitDx=0;exitDy=0;entryX=0.5;entryY=0;entryDx=0;entryDy=0;" edge="1" parent="1" source="wbaNhf7xzRuQKyWg5way-6" target="wbaNhf7xzRuQKyWg5way-7">
          <mxGeometry relative="1" as="geometry" />
        </mxCell>
        <mxCell id="wbaNhf7xzRuQKyWg5way-6" value="Input N ngẫu nhiên 0 - 9" style="shape=parallelogram;perimeter=parallelogramPerimeter;whiteSpace=wrap;html=1;fixedSize=1;" vertex="1" parent="1">
          <mxGeometry x="165" y="220" width="190" height="60" as="geometry" />
        </mxCell>
        <mxCell id="wbaNhf7xzRuQKyWg5way-13" style="edgeStyle=orthogonalEdgeStyle;rounded=0;orthogonalLoop=1;jettySize=auto;html=1;exitX=0.5;exitY=1;exitDx=0;exitDy=0;entryX=0.5;entryY=0;entryDx=0;entryDy=0;" edge="1" parent="1" source="wbaNhf7xzRuQKyWg5way-7" target="wbaNhf7xzRuQKyWg5way-8">
          <mxGeometry relative="1" as="geometry" />
        </mxCell>
        <mxCell id="wbaNhf7xzRuQKyWg5way-7" value="Input M" style="shape=parallelogram;perimeter=parallelogramPerimeter;whiteSpace=wrap;html=1;fixedSize=1;" vertex="1" parent="1">
          <mxGeometry x="165" y="320" width="190" height="60" as="geometry" />
        </mxCell>
        <mxCell id="wbaNhf7xzRuQKyWg5way-16" style="edgeStyle=orthogonalEdgeStyle;rounded=0;orthogonalLoop=1;jettySize=auto;html=1;exitX=0;exitY=0.5;exitDx=0;exitDy=0;entryX=0.5;entryY=0;entryDx=0;entryDy=0;" edge="1" parent="1" source="wbaNhf7xzRuQKyWg5way-8" target="wbaNhf7xzRuQKyWg5way-9">
          <mxGeometry relative="1" as="geometry" />
        </mxCell>
        <mxCell id="wbaNhf7xzRuQKyWg5way-20" value="YES" style="edgeLabel;html=1;align=center;verticalAlign=middle;resizable=0;points=[];" connectable="0" vertex="1" parent="wbaNhf7xzRuQKyWg5way-16">
          <mxGeometry x="-0.2414" relative="1" as="geometry">
            <mxPoint as="offset" />
          </mxGeometry>
        </mxCell>
        <mxCell id="wbaNhf7xzRuQKyWg5way-17" style="edgeStyle=orthogonalEdgeStyle;rounded=0;orthogonalLoop=1;jettySize=auto;html=1;exitX=1;exitY=0.5;exitDx=0;exitDy=0;entryX=0.5;entryY=0;entryDx=0;entryDy=0;" edge="1" parent="1" source="wbaNhf7xzRuQKyWg5way-8" target="wbaNhf7xzRuQKyWg5way-10">
          <mxGeometry relative="1" as="geometry" />
        </mxCell>
        <mxCell id="wbaNhf7xzRuQKyWg5way-21" value="NO" style="edgeLabel;html=1;align=center;verticalAlign=middle;resizable=0;points=[];" connectable="0" vertex="1" parent="wbaNhf7xzRuQKyWg5way-17">
          <mxGeometry x="-0.2966" relative="1" as="geometry">
            <mxPoint as="offset" />
          </mxGeometry>
        </mxCell>
        <mxCell id="wbaNhf7xzRuQKyWg5way-8" value="N == M" style="rhombus;whiteSpace=wrap;html=1;" vertex="1" parent="1">
          <mxGeometry x="200" y="430" width="120" height="60" as="geometry" />
        </mxCell>
        <mxCell id="wbaNhf7xzRuQKyWg5way-18" style="edgeStyle=orthogonalEdgeStyle;rounded=0;orthogonalLoop=1;jettySize=auto;html=1;exitX=0.5;exitY=1;exitDx=0;exitDy=0;entryX=0.5;entryY=0;entryDx=0;entryDy=0;" edge="1" parent="1" source="wbaNhf7xzRuQKyWg5way-9" target="wbaNhf7xzRuQKyWg5way-5">
          <mxGeometry relative="1" as="geometry" />
        </mxCell>
        <mxCell id="wbaNhf7xzRuQKyWg5way-9" value="Output &quot;Dự đoán đúng&quot;" style="shape=parallelogram;perimeter=parallelogramPerimeter;whiteSpace=wrap;html=1;fixedSize=1;" vertex="1" parent="1">
          <mxGeometry x="20" y="520" width="190" height="60" as="geometry" />
        </mxCell>
        <mxCell id="wbaNhf7xzRuQKyWg5way-19" style="edgeStyle=orthogonalEdgeStyle;rounded=0;orthogonalLoop=1;jettySize=auto;html=1;exitX=0.5;exitY=1;exitDx=0;exitDy=0;entryX=0.5;entryY=0;entryDx=0;entryDy=0;" edge="1" parent="1" source="wbaNhf7xzRuQKyWg5way-10" target="wbaNhf7xzRuQKyWg5way-5">
          <mxGeometry relative="1" as="geometry" />
        </mxCell>
        <mxCell id="wbaNhf7xzRuQKyWg5way-10" value="Output &quot;Dự đoán sai&quot;" style="shape=parallelogram;perimeter=parallelogramPerimeter;whiteSpace=wrap;html=1;fixedSize=1;" vertex="1" parent="1">
          <mxGeometry x="310" y="520" width="190" height="60" as="geometry" />
        </mxCell>
      </root>
    </mxGraphModel>
  </diagram>
</mxfile>
